<?xml version="1.0" encoding="UTF-8" standalone="no"?>
<!DOCTYPE svg PUBLIC "-//W3C//DTD SVG 1.1//EN" "http://www.w3.org/Graphics/SVG/1.1/DTD/svg11.dtd">
<svg width="100%" height="100%" viewBox="0 0 148 60" version="1.1" xmlns="http://www.w3.org/2000/svg" xmlns:xlink="http://www.w3.org/1999/xlink" xml:space="preserve" xmlns:serif="http://www.serif.com/" style="fill-rule:evenodd;clip-rule:evenodd;stroke-miterlimit:10;">
    <g transform="matrix(1,0,0,1,0,-1.39103)">
        <g id="União_61" transform="matrix(1.40457,0,0,1.40457,23.3363,11.5178)">
            <path d="M55.472,33.876L56.72,26.026C56.798,25.543 56.885,25.126 56.998,24.673C57.912,24.221 58.921,23.994 59.941,24.01C61.881,24.01 62.8,24.602 62.8,26.41C62.795,26.834 62.758,27.258 62.69,27.677C62.242,30.444 61.138,31.343 58.974,31.343C58.532,31.34 58.091,31.289 57.66,31.191L57.224,33.876L55.472,33.876ZM58.59,25.594C58.514,25.885 58.451,26.23 58.39,26.55L57.88,29.783C58.19,29.882 58.513,29.934 58.838,29.938C60.517,29.938 60.709,28.98 60.918,27.678C60.977,27.344 61.01,27.007 61.018,26.668C61.018,25.945 60.755,25.406 59.709,25.406C59.328,25.398 58.948,25.461 58.59,25.594ZM68.209,28.86C68.215,28.463 68.25,28.066 68.315,27.674C68.727,25.082 69.701,24.011 72.056,24.011C74.081,24.011 74.7,24.864 74.7,26.29C74.693,26.709 74.654,27.127 74.582,27.54C74.556,27.732 74.518,27.923 74.471,28.111C73.647,28.258 72.06,28.411 71.088,28.467L69.918,28.529C69.907,28.619 69.902,28.709 69.903,28.8C69.903,29.688 70.437,29.917 71.36,29.917C72.218,29.909 73.074,29.845 73.924,29.726L73.859,31.071C72.829,31.25 71.785,31.341 70.739,31.343C68.83,31.343 68.209,30.348 68.209,28.86ZM70.064,27.307L71.28,27.247C71.744,27.226 72.456,27.166 72.88,27.109C72.905,27.016 72.925,26.921 72.94,26.825C72.964,26.677 72.978,26.528 72.981,26.378C72.981,25.726 72.66,25.371 71.832,25.371C70.547,25.372 70.24,26.191 70.064,27.308L70.064,27.307ZM41.358,28.86C41.361,28.463 41.395,28.066 41.458,27.674C41.87,25.082 42.846,24.011 45.197,24.011C47.225,24.011 47.845,24.864 47.845,26.29C47.838,26.709 47.798,27.127 47.725,27.54C47.698,27.732 47.661,27.923 47.614,28.111C46.793,28.258 45.208,28.411 44.229,28.467L43.062,28.529C43.054,28.62 43.045,28.716 43.045,28.8C43.045,29.688 43.583,29.917 44.507,29.917C45.363,29.909 46.217,29.845 47.065,29.726L47.003,31.071C45.973,31.25 44.929,31.341 43.883,31.343C41.979,31.343 41.358,30.348 41.358,28.86ZM43.211,27.307L44.426,27.247C44.893,27.226 45.608,27.166 46.031,27.109C46.055,27.029 46.077,26.909 46.093,26.825C46.115,26.677 46.126,26.528 46.128,26.378C46.128,25.726 45.811,25.371 44.986,25.371C43.694,25.372 43.39,26.191 43.212,27.308L43.211,27.307ZM81.611,31.032L81.99,29.712C82.61,29.834 83.239,29.906 83.871,29.927C84.404,29.927 85.297,29.947 85.413,29.24C85.421,29.192 85.426,29.144 85.428,29.096C85.428,28.55 84.855,28.49 84.342,28.32C83.403,28.011 82.45,27.694 82.45,26.51C82.453,26.367 82.465,26.225 82.488,26.084C82.744,24.476 83.923,24.011 85.332,24.011C86.187,23.999 87.04,24.1 87.869,24.311L87.492,25.611C86.916,25.481 86.328,25.41 85.738,25.401C85.182,25.401 84.338,25.401 84.238,26.016C84.138,26.631 84.847,26.748 85.393,26.945C86.368,27.305 87.224,27.534 87.224,28.703C87.223,28.865 87.209,29.026 87.183,29.186C86.915,30.88 85.62,31.348 84.068,31.348C83.238,31.347 82.411,31.241 81.607,31.033L81.611,31.032ZM75.275,31.032L75.654,29.712C76.275,29.834 76.904,29.906 77.536,29.927C78.069,29.927 78.962,29.947 79.075,29.24C79.084,29.193 79.088,29.144 79.088,29.096C79.088,28.55 78.522,28.49 78.003,28.32C77.066,28.011 76.114,27.694 76.114,26.51C76.115,26.367 76.126,26.225 76.147,26.084C76.405,24.476 77.587,24.011 78.992,24.011C79.847,23.998 80.699,24.099 81.527,24.311L81.156,25.611C80.58,25.48 79.991,25.41 79.4,25.4C78.842,25.4 78,25.4 77.9,26.015C77.8,26.63 78.509,26.747 79.055,26.944C80.036,27.304 80.886,27.533 80.886,28.702C80.885,28.864 80.872,29.025 80.848,29.185C80.578,30.879 79.288,31.347 77.733,31.347C76.902,31.346 76.075,31.241 75.271,31.033L75.275,31.032ZM63.61,31.247L64.439,26.026C64.514,25.543 64.601,25.126 64.714,24.674C65.626,24.223 66.632,23.995 67.649,24.011C67.885,24.009 68.121,24.02 68.356,24.043L67.99,25.473C67.824,25.452 67.657,25.443 67.49,25.444C67.077,25.436 66.667,25.512 66.285,25.668C66.21,25.95 66.147,26.301 66.09,26.622L65.353,31.248L63.61,31.247ZM52.844,31.247L51.662,28.884L49.752,31.247L47.82,31.247L50.95,27.562L49.131,24.1L51.145,24.1L52.208,26.239L53.948,24.1L55.83,24.1L52.918,27.519L54.886,31.243L52.844,31.247ZM4.545,16.677C3.557,15.531 3.001,14.075 2.974,12.562C2.413,12.783 1.848,13.012 1.283,13.243C1.169,13.291 1.046,13.316 0.922,13.316C0.413,13.316 -0.006,12.897 -0.006,12.388C-0.006,12.016 0.218,11.678 0.561,11.533C1.367,11.195 2.161,10.875 2.949,10.568C4.749,9.868 6.516,9.245 8.249,8.7C11.569,7.651 14.955,6.823 18.385,6.222C20.19,5.91 21.948,5.672 23.659,5.508C26.966,5.176 30.293,5.082 33.614,5.226C35.369,5.304 37.049,5.449 38.658,5.642C42.356,6.086 46.008,6.851 49.573,7.927C51.094,8.395 52.468,8.873 53.684,9.346C56.015,10.21 58.261,11.289 60.393,12.567C58.185,11.414 55.875,10.468 53.493,9.741L52.993,10.765L49.393,18.141C49.298,18.337 49.1,18.462 48.882,18.465L44.943,18.465C44.63,18.465 44.373,18.208 44.373,17.895C44.373,17.803 44.395,17.712 44.438,17.631L48.406,10.14L49.25,8.54C45.701,7.686 42.09,7.118 38.45,6.84L37.957,9.755L36.548,17.985C36.503,18.259 36.265,18.462 35.987,18.463L32.041,18.463C32.04,18.463 32.039,18.463 32.037,18.463C31.725,18.463 31.467,18.206 31.467,17.893C31.467,17.86 31.47,17.827 31.476,17.794L32.793,10.04L33.374,6.634C30.029,6.621 26.686,6.827 23.368,7.251C23.114,8.699 22.752,10.127 22.287,11.522C20.533,16.561 17.475,18.702 11.387,18.702C8.07,18.705 5.871,18.067 4.545,16.677ZM8.058,10.736C8.051,10.836 8.048,10.942 8.048,11.036C8.048,12.907 8.625,14.17 10.493,14.579C10.987,14.679 11.489,14.727 11.993,14.723C13.659,14.875 15.295,14.185 16.349,12.885C17.261,11.442 17.844,9.815 18.057,8.121C14.674,8.788 11.335,9.661 8.058,10.736Z" style="fill:white;fill-rule:nonzero;stroke:black;stroke-opacity:0;stroke-width:1px;"/>
        </g>
        <g id="União_63" transform="matrix(1.40457,0,0,1.40457,0.385678,3.68312)">
            <path d="M89.876,19.784C89.882,19.283 89.931,18.784 90.022,18.291L93.016,0.716C93.066,0.444 93.305,0.244 93.582,0.243L97.519,0.243C97.832,0.243 98.09,0.501 98.09,0.814C98.09,0.845 98.087,0.877 98.082,0.908L95.348,16.942C95.257,17.417 95.207,17.899 95.197,18.383C95.197,19.812 95.954,20.183 98.308,20.183L104.147,20.183C104.148,20.183 104.15,20.183 104.151,20.183C104.46,20.183 104.714,20.437 104.714,20.746C104.714,20.777 104.711,20.809 104.706,20.84L104.26,23.485C104.215,23.747 103.99,23.944 103.724,23.955C101.905,24.027 99.188,24.101 97.745,24.101C93.655,24.1 89.876,23.907 89.876,19.784ZM78.415,24.044C78.134,24.044 77.892,23.836 77.851,23.558L74.956,4.821L70.412,14.127C69.275,13.527 67.987,12.889 66.567,12.268L71.309,3.317C72.547,0.99 74.068,0 76,0C77.876,0 79.109,1.048 79.529,3.318L83.204,23.37C83.211,23.405 83.214,23.441 83.214,23.477C83.214,23.789 82.958,24.045 82.646,24.045L78.415,24.044ZM3.321,24.044C3.009,24.044 2.752,23.787 2.752,23.475C2.752,23.441 2.755,23.408 2.761,23.375L6.029,4.15L0.573,4.15C0.259,4.148 0.001,3.889 0.001,3.575C0.001,3.546 0.003,3.516 0.008,3.487L0.478,0.716C0.526,0.444 0.763,0.244 1.039,0.243L17.3,0.243C17.303,0.243 17.306,0.243 17.31,0.243C17.62,0.243 17.875,0.498 17.875,0.808C17.875,0.839 17.872,0.87 17.867,0.9L17.4,3.673C17.355,3.948 17.114,4.151 16.835,4.149L11.145,4.149L7.834,23.564C7.79,23.84 7.55,24.044 7.271,24.044L3.321,24.044ZM31.868,0C38,0 40.315,2.184 40.315,7.3L40.315,7.326C38.652,7.393 36.956,7.526 35.205,7.741L35.205,7.677C35.205,5.37 34.35,3.977 31.264,3.977C27.347,3.977 26.152,6.235 25.388,9.745C23.58,10.255 21.741,10.854 19.869,11.556C21.357,3.363 24.239,0 31.868,0ZM50.468,7.779L51.088,4.15L45.628,4.15C45.315,4.15 45.058,3.892 45.058,3.579C45.058,3.548 45.06,3.517 45.065,3.487L45.534,0.716C45.581,0.444 45.818,0.244 46.094,0.243L62.364,0.243C62.365,0.243 62.366,0.243 62.366,0.243C62.677,0.243 62.932,0.498 62.932,0.809C62.932,0.839 62.93,0.87 62.925,0.9L62.456,3.668C62.41,3.941 62.171,4.144 61.894,4.144L56.207,4.144L55.436,8.644C53.857,8.3 52.2,8 50.469,7.779L50.468,7.779Z" style="fill:white;fill-rule:nonzero;stroke:black;stroke-opacity:0;stroke-width:1px;"/>
        </g>
        <g id="União_62" transform="matrix(1.40457,0,0,1.40457,27.5121,20.8399)">
            <path d="M0,5.925C1.722,5.251 3.414,4.638 5.084,4.1C5.077,4.2 5.073,4.3 5.073,4.4C5.073,6.27 5.65,7.534 7.519,7.943C5.58,8.57 3.594,9.263 1.571,10.037C0.584,8.892 0.028,7.437 0,5.925ZM15.079,1.487C16.9,1.124 18.669,0.839 20.395,0.618C20.141,2.066 19.78,3.494 19.315,4.889C17.39,5.273 15.406,5.72 13.372,6.25C14.284,4.807 14.867,3.181 15.079,1.487ZM45.432,3.5L46.276,1.9C47.843,2.283 49.262,2.692 50.52,3.1L50.02,4.124C48.66,3.892 47.128,3.677 45.432,3.5ZM30.4,0C32.167,0.015 33.859,0.083 35.477,0.206L34.984,3.12C33.336,3.164 31.616,3.254 29.82,3.407L30.4,0Z" style="fill:white;fill-rule:nonzero;stroke:black;stroke-opacity:0;stroke-width:1px;"/>
        </g>
    </g>
</svg>
