<svg id="logo_total-express_slogan" data-name="logo/total-express/slogan" xmlns="http://www.w3.org/2000/svg" width="296" height="75" viewBox="0 0 296 75">
  <rect id="margem-seguranca" width="296" height="75" fill="#fff" opacity="0"/>
  <path id="União_61" data-name="União 61" d="M55.472,33.876l1.248-7.85c.078-.483.165-.9.278-1.353a6.406,6.406,0,0,1,2.943-.663c1.94,0,2.859.592,2.859,2.4a8.451,8.451,0,0,1-.11,1.267c-.448,2.767-1.552,3.666-3.716,3.666a6.147,6.147,0,0,1-1.314-.152l-.436,2.685Zm3.118-8.282c-.076.291-.139.636-.2.956l-.51,3.233a3.284,3.284,0,0,0,.958.155c1.679,0,1.871-.958,2.08-2.26a6.636,6.636,0,0,0,.1-1.01c0-.723-.263-1.262-1.309-1.262A3.032,3.032,0,0,0,58.59,25.594Zm9.619,3.266a7.962,7.962,0,0,1,.106-1.186c.412-2.592,1.386-3.663,3.741-3.663,2.025,0,2.644.853,2.644,2.279a8.035,8.035,0,0,1-.118,1.25,5.282,5.282,0,0,1-.111.571c-.824.147-2.411.3-3.383.356l-1.17.062a2.092,2.092,0,0,0-.015.271c0,.888.534,1.117,1.457,1.117a19.676,19.676,0,0,0,2.564-.191l-.065,1.345a18.377,18.377,0,0,1-3.12.272C68.83,31.343,68.209,30.348,68.209,28.86Zm1.855-1.553,1.216-.06c.464-.021,1.176-.081,1.6-.138a2.55,2.55,0,0,0,.06-.284,3.189,3.189,0,0,0,.041-.447c0-.652-.321-1.007-1.149-1.007C70.547,25.372,70.24,26.191,70.064,27.308ZM41.358,28.86a7.891,7.891,0,0,1,.1-1.186c.412-2.592,1.388-3.663,3.739-3.663,2.028,0,2.648.853,2.648,2.279a7.934,7.934,0,0,1-.12,1.25,5.519,5.519,0,0,1-.111.571c-.821.147-2.406.3-3.385.356l-1.167.062c-.008.091-.017.187-.017.271,0,.888.538,1.117,1.462,1.117a19.632,19.632,0,0,0,2.558-.191l-.062,1.345a18.36,18.36,0,0,1-3.12.272C41.979,31.343,41.358,30.348,41.358,28.86Zm1.853-1.553,1.215-.06c.467-.021,1.182-.081,1.605-.138.024-.08.046-.2.062-.284a3.376,3.376,0,0,0,.035-.447c0-.652-.317-1.007-1.142-1.007C43.694,25.372,43.39,26.191,43.212,27.308Zm38.4,3.725.379-1.32a11.816,11.816,0,0,0,1.881.215c.533,0,1.426.02,1.542-.687a1.043,1.043,0,0,0,.015-.144c0-.546-.573-.606-1.086-.776-.939-.309-1.892-.626-1.892-1.81a3,3,0,0,1,.038-.426c.256-1.608,1.435-2.073,2.844-2.073a9.719,9.719,0,0,1,2.537.3l-.377,1.3a8.548,8.548,0,0,0-1.754-.21c-.556,0-1.4,0-1.5.615s.609.732,1.155.929c.975.36,1.831.589,1.831,1.758a3.078,3.078,0,0,1-.041.483c-.268,1.694-1.563,2.162-3.115,2.162A9.906,9.906,0,0,1,81.607,31.033Zm-6.336,0,.379-1.32a11.752,11.752,0,0,0,1.882.215c.533,0,1.426.02,1.539-.687a.764.764,0,0,0,.013-.144c0-.546-.566-.606-1.085-.776-.937-.309-1.889-.626-1.889-1.81a2.958,2.958,0,0,1,.033-.426c.258-1.608,1.44-2.073,2.845-2.073a9.659,9.659,0,0,1,2.535.3l-.371,1.3A8.568,8.568,0,0,0,79.4,25.4c-.558,0-1.4,0-1.5.615s.609.732,1.155.929c.981.36,1.831.589,1.831,1.758a3.463,3.463,0,0,1-.038.483c-.27,1.694-1.56,2.162-3.115,2.162A9.9,9.9,0,0,1,75.271,31.033Zm-11.665.215.829-5.221c.075-.483.162-.9.275-1.352a6.394,6.394,0,0,1,2.935-.663,6.851,6.851,0,0,1,.707.032l-.366,1.43a3.809,3.809,0,0,0-.5-.029,3.025,3.025,0,0,0-1.205.224c-.075.282-.138.633-.195.954l-.737,4.626Zm-10.766,0-1.182-2.363-1.91,2.363H47.82l3.13-3.685L49.131,24.1h2.014l1.063,2.139,1.74-2.139H55.83l-2.912,3.419,1.968,3.724ZM186.391,26.9a.3.3,0,0,1-.3-.287V16.519c0-.23.057-.331.446-.418a13.657,13.657,0,0,1,3.077-.374c2.34,0,3.626,1.354,3.626,3.686v1.123c0,2.26-1.185,3.686-3.626,3.686a10.038,10.038,0,0,1-1.184-.1v2.491a.29.29,0,0,1-.289.287Zm2.037-9.172v4.493a11.039,11.039,0,0,0,1.184.086c1.026,0,1.286-.762,1.286-1.771V19.414c0-1.023-.26-1.757-1.286-1.757A8.281,8.281,0,0,0,188.428,17.729ZM126.749,26.9a.3.3,0,0,1-.3-.287V16.519c0-.23.058-.332.448-.418a13.64,13.64,0,0,1,3.076-.374c2.339,0,3.626,1.354,3.626,3.686v1.123c0,2.26-1.186,3.686-3.626,3.686a10.192,10.192,0,0,1-1.185-.1v2.491a.288.288,0,0,1-.289.287Zm2.037-9.172V22.22a10.872,10.872,0,0,0,1.185.087c1.026,0,1.285-.763,1.285-1.771V19.413c0-1.023-.259-1.757-1.285-1.757A8.311,8.311,0,0,0,128.786,17.728Zm105.677,6.179a.326.326,0,0,1-.276-.332V22.409a.266.266,0,0,1,.276-.274h.057c.78.1,1.993.2,2.456.2.693,0,.852-.187.852-.561,0-.217-.13-.375-.535-.6l-1.878-1.08a2.38,2.38,0,0,1-1.285-2.131c0-1.454.968-2.232,2.962-2.232a9.35,9.35,0,0,1,2.57.331.326.326,0,0,1,.274.332v1.166a.243.243,0,0,1-.244.274h-.044a23.2,23.2,0,0,0-2.4-.188c-.564,0-.766.086-.766.418,0,.216.16.331.449.5l1.791,1.023a2.385,2.385,0,0,1,1.46,2.217c0,1.353-.983,2.419-3.091,2.419A11.34,11.34,0,0,1,234.463,23.907Zm-8.48-2.161v-.128c0-1.685,1.083-2.434,3.553-2.434h.781v-.518c0-.822-.406-.994-1.084-.994-.925,0-1.949.057-2.4.1h-.072a.235.235,0,0,1-.26-.259V16.347a.321.321,0,0,1,.275-.316,11.589,11.589,0,0,1,2.5-.3c2.08,0,3.38.837,3.38,2.939v5.14a.29.29,0,0,1-.29.287h-1.617a.288.288,0,0,1-.288-.287v-.232a3.187,3.187,0,0,1-2.006.648A2.248,2.248,0,0,1,225.983,21.746Zm2.282-.128v.128c0,.606.3.72.91.72a2.674,2.674,0,0,0,1.185-.317V20.566h-.823C228.525,20.566,228.265,20.912,228.265,21.618Zm-10.732-1.138V19.471c0-2.289,1.285-3.744,3.625-3.744s3.61,1.454,3.61,3.744v1.008c0,2.29-1.271,3.744-3.61,3.744S217.533,22.769,217.533,20.479Zm2.326-1.008v1.008c0,1.167.461,1.771,1.3,1.771s1.285-.6,1.285-1.771V19.471c0-1.166-.448-1.757-1.285-1.757S219.859,18.305,219.859,19.471Zm-9.287,4.436a.326.326,0,0,1-.276-.332V22.409a.266.266,0,0,1,.276-.274h.057c.78.1,1.993.2,2.455.2.694,0,.853-.187.853-.561,0-.217-.13-.375-.535-.6l-1.879-1.08a2.38,2.38,0,0,1-1.285-2.131c0-1.454.968-2.232,2.962-2.232a9.355,9.355,0,0,1,2.57.331.326.326,0,0,1,.274.332v1.166a.243.243,0,0,1-.245.274h-.044a23.174,23.174,0,0,0-2.4-.188c-.564,0-.766.086-.766.418,0,.216.159.331.449.5l1.791,1.023A2.384,2.384,0,0,1,216.29,21.8c0,1.353-.982,2.419-3.09,2.419A11.334,11.334,0,0,1,210.572,23.907Zm-7.267,0a.325.325,0,0,1-.274-.332V22.409a.265.265,0,0,1,.274-.274h.058c.781.1,1.994.2,2.456.2.693,0,.852-.187.852-.561,0-.217-.13-.375-.535-.6l-1.877-1.08a2.378,2.378,0,0,1-1.285-2.131c0-1.454.968-2.232,2.962-2.232a9.36,9.36,0,0,1,2.571.331.326.326,0,0,1,.274.332v1.166a.243.243,0,0,1-.245.274h-.044a23.187,23.187,0,0,0-2.4-.188c-.564,0-.766.086-.766.418,0,.216.159.331.449.5l1.79,1.023a2.384,2.384,0,0,1,1.46,2.217c0,1.353-.982,2.419-3.09,2.419A11.359,11.359,0,0,1,203.3,23.907Zm-29.379-2.161v-.128c0-1.685,1.083-2.434,3.553-2.434h.78v-.518c0-.822-.406-.994-1.084-.994-.925,0-1.949.057-2.4.1h-.071a.235.235,0,0,1-.261-.259V16.347a.321.321,0,0,1,.275-.316,11.58,11.58,0,0,1,2.5-.3c2.079,0,3.38.837,3.38,2.939v5.14a.29.29,0,0,1-.29.287h-1.618a.288.288,0,0,1-.288-.287v-.232a3.19,3.19,0,0,1-2.008.648A2.248,2.248,0,0,1,173.925,21.746Zm2.282-.128v.128c0,.606.3.72.91.72a2.672,2.672,0,0,0,1.184-.317V20.566h-.823C176.467,20.566,176.207,20.912,176.207,21.618Zm18.287-1.095V19.515a3.441,3.441,0,0,1,3.654-3.788c2.369,0,3.567,1.613,3.567,3.788v.834c0,.216-.115.346-.3.346H196.8v.028a1.377,1.377,0,0,0,1.487,1.569c.91,0,2.2-.071,2.774-.129h.044c.159,0,.274.073.274.23v1.094c0,.23-.058.332-.3.389a11.072,11.072,0,0,1-2.961.344A3.378,3.378,0,0,1,194.494,20.523ZM196.8,19.2v.058h2.628V19.2c0-1.066-.491-1.6-1.3-1.6S196.8,18.147,196.8,19.2Zm-56.521,1.281V19.471c0-2.29,1.286-3.744,3.626-3.744s3.611,1.453,3.611,3.744v1.008c0,2.289-1.271,3.744-3.611,3.744S140.284,22.768,140.284,20.478Zm2.327-1.008v1.008c0,1.166.462,1.771,1.3,1.771s1.286-.6,1.286-1.771V19.471c0-1.166-.449-1.757-1.286-1.757S142.611,18.3,142.611,19.471Zm99.318,4.623a.3.3,0,0,1-.3-.288V21.992a.29.29,0,0,1,.3-.274h1.69a.278.278,0,0,1,.29.274v1.814a.29.29,0,0,1-.29.288Zm-71.5,0a.3.3,0,0,1-.288-.3V18.881c0-.921-.217-1.2-.881-1.2a2.8,2.8,0,0,0-1.112.26c.029.288.044.619.044.936v4.911a.3.3,0,0,1-.289.3h-1.747a.314.314,0,0,1-.3-.3V18.881c0-.921-.174-1.2-.838-1.2a2.726,2.726,0,0,0-1.1.375v5.732a.3.3,0,0,1-.289.3h-1.747a.314.314,0,0,1-.3-.3V16.131a.289.289,0,0,1,.288-.287h1.647a.289.289,0,0,1,.289.287v.317a3.8,3.8,0,0,1,2.138-.72,2.027,2.027,0,0,1,1.7.705A4.25,4.25,0,0,1,170,15.728c1.907,0,2.484,1.267,2.484,3.153v4.911a.314.314,0,0,1-.3.3Zm-12.7,0a.289.289,0,0,1-.29-.288V16.131a.289.289,0,0,1,.29-.287H159.5a.288.288,0,0,1,.288.287v7.675a.288.288,0,0,1-.288.288Zm-4.06,0c-.159,0-.244-.086-.375-.3l-1.43-2.233-1.344,2.247c-.13.217-.217.288-.376.288h-1.935a.155.155,0,0,1-.159-.173.2.2,0,0,1,.029-.115l2.527-4-2.455-3.657a.225.225,0,0,1-.028-.087.222.222,0,0,1,.217-.215H150.5c.159,0,.245.115.376.3l1.285,1.987,1.184-1.987c.13-.217.217-.3.376-.3h1.935a.178.178,0,0,1,.173.187.176.176,0,0,1-.029.115l-2.382,3.773,2.614,3.874a.2.2,0,0,1-.174.3Zm-18.3,0a.315.315,0,0,1-.3-.3V16.13a.29.29,0,0,1,.289-.289h1.718a.29.29,0,0,1,.289.289v.288a3.1,3.1,0,0,1,1.95-.691.288.288,0,0,1,.288.287v1.368c0,.13-.086.274-.217.274h-.115a3.9,3.9,0,0,0-1.863.5v5.631a.3.3,0,0,1-.289.3Zm-12.336,0a.306.306,0,0,1-.288-.26l-.519-2.361h-2.962l-.52,2.361a.306.306,0,0,1-.288.26h-2.022a.224.224,0,0,1-.246-.23.649.649,0,0,0,.015-.071l2.152-8.928a2.587,2.587,0,0,1,4.781,0l2.151,8.928a.66.66,0,0,0,.015.071.224.224,0,0,1-.245.23Zm-2.484-8.568-.881,3.975h2.153l-.881-3.975c-.029-.143-.058-.216-.188-.216S120.581,15.381,120.553,15.524ZM4.545,16.677a6.481,6.481,0,0,1-1.571-4.115c-.561.221-1.126.45-1.691.681a.928.928,0,0,1-.722-1.71c.806-.338,1.6-.658,2.388-.965q2.7-1.05,5.3-1.868A78.649,78.649,0,0,1,18.385,6.222q2.708-.468,5.274-.714a69.418,69.418,0,0,1,9.955-.282c1.755.078,3.435.223,5.044.416A64.347,64.347,0,0,1,49.573,7.927c1.521.468,2.895.946,4.111,1.419a40.3,40.3,0,0,1,6.709,3.221,40.338,40.338,0,0,0-6.9-2.826l-.5,1.024-3.6,7.376a.577.577,0,0,1-.511.324H44.943a.57.57,0,0,1-.505-.834l3.968-7.491.844-1.6a68.479,68.479,0,0,0-10.8-1.7l-.493,2.915-1.409,8.23a.57.57,0,0,1-.561.478H32.041a.57.57,0,0,1-.565-.669l1.317-7.754.581-3.406a76.712,76.712,0,0,0-10.006.617,29.737,29.737,0,0,1-1.081,4.271c-1.754,5.039-4.812,7.18-10.9,7.18C8.07,18.705,5.871,18.067,4.545,16.677Zm3.513-5.941c-.007.1-.01.206-.01.3,0,1.871.577,3.134,2.445,3.543a7.246,7.246,0,0,0,1.5.144,5.02,5.02,0,0,0,4.356-1.838,11.629,11.629,0,0,0,1.708-4.764A84.5,84.5,0,0,0,8.058,10.736Zm149.617,4.171a.288.288,0,0,1-.288-.287V13.28a.288.288,0,0,1,.288-.287h1.878a.288.288,0,0,1,.288.287v1.34a.288.288,0,0,1-.288.287Zm35.043-3.1v-.115a1.957,1.957,0,0,1,.867-1.613,1.529,1.529,0,0,1-.737-1.339,1.545,1.545,0,0,1,.635-1.225,2.374,2.374,0,0,1-.664-1.712V5.688c0-1.627,1.083-2.721,3.611-2.721h3.6a.369.369,0,0,1,.361.374v.82c0,.2-.087.259-.26.317l-.448.144A2.192,2.192,0,0,1,200,5.688V5.8c0,1.871-1.314,2.692-3.567,2.692a4.426,4.426,0,0,1-1.5-.215.357.357,0,0,0-.2.331c0,.23.087.331.433.4l1.633.36c2.513.546,3.379.936,3.379,2.319v.115c0,1.584-1.242,2.347-3.784,2.347C193.988,14.156,192.718,13.32,192.718,11.808Zm2.224-.115v.115c0,.489.333.735,1.444.735,1.185,0,1.4-.3,1.4-.735v-.115c0-.274-.187-.461-1.487-.749l-1.069-.231A1.466,1.466,0,0,0,194.942,11.693Zm.174-6.005V5.8c0,.489.216,1.008,1.314,1.008,1.011,0,1.286-.389,1.286-1.008V5.688c0-.59-.261-1.037-1.286-1.037S195.116,5.1,195.116,5.688ZM229.7,11.03a.325.325,0,0,1-.275-.331V9.533a.265.265,0,0,1,.275-.274h.057c.78.1,1.993.2,2.456.2.693,0,.852-.188.852-.562,0-.216-.131-.374-.535-.6l-1.878-1.08a2.38,2.38,0,0,1-1.286-2.132c0-1.453.968-2.232,2.962-2.232a9.352,9.352,0,0,1,2.57.331.327.327,0,0,1,.275.332V4.68a.245.245,0,0,1-.246.275h-.043a22.963,22.963,0,0,0-2.4-.189c-.564,0-.766.087-.766.418,0,.216.159.332.449.5l1.791,1.023a2.386,2.386,0,0,1,1.459,2.217c0,1.353-.983,2.419-3.091,2.419A11.3,11.3,0,0,1,229.7,11.03ZM220.885,7.6V6.6c0-2.289,1.286-3.744,3.626-3.744s3.611,1.454,3.611,3.744V7.6c0,2.29-1.271,3.743-3.611,3.743S220.885,9.893,220.885,7.6ZM223.211,6.6V7.6c0,1.166.462,1.771,1.3,1.771S225.8,8.77,225.8,7.6V6.6c0-1.166-.449-1.757-1.286-1.757S223.211,5.429,223.211,6.6ZM209.864,7.7V6.494c0-2.347,1.329-3.643,3.365-3.643a8.053,8.053,0,0,1,1.921.215c.217.059.3.116.3.332V4.68a.26.26,0,0,1-.274.245h-.029a13.794,13.794,0,0,0-1.762-.1c-.649,0-1.184.39-1.184,1.67V7.7c0,1.282.535,1.67,1.184,1.67a13.782,13.782,0,0,0,1.762-.1h.029a.26.26,0,0,1,.274.245V10.8c0,.215-.087.273-.3.331a8.006,8.006,0,0,1-1.921.215C211.192,11.347,209.864,10.052,209.864,7.7Zm-8.523-.1V6.6c0-2.289,1.286-3.744,3.626-3.744s3.611,1.454,3.611,3.744V7.6c0,2.29-1.271,3.743-3.611,3.743S201.341,9.893,201.341,7.6ZM203.668,6.6V7.6c0,1.166.461,1.771,1.3,1.771s1.286-.6,1.286-1.771V6.6c0-1.166-.449-1.757-1.286-1.757S203.668,5.429,203.668,6.6ZM184.182,7.647V6.638a3.441,3.441,0,0,1,3.654-3.787c2.369,0,3.568,1.613,3.568,3.787v.836c0,.216-.115.346-.3.346h-4.607v.028a1.376,1.376,0,0,0,1.487,1.568c.91,0,2.2-.071,2.774-.128h.043c.159,0,.275.072.275.23v1.094c0,.23-.058.332-.3.389a11.069,11.069,0,0,1-2.961.345A3.377,3.377,0,0,1,184.182,7.647Zm2.311-1.325V6.38h2.628V6.321c0-1.065-.491-1.6-1.3-1.6S186.493,5.27,186.493,6.321ZM163.4,8.871v-.13c0-1.684,1.083-2.433,3.554-2.433h.78V5.789c0-.822-.406-.994-1.084-.994-.925,0-1.949.058-2.4.1h-.072a.235.235,0,0,1-.26-.259V3.47a.322.322,0,0,1,.275-.316,11.64,11.64,0,0,1,2.5-.3c2.08,0,3.38.835,3.38,2.938v5.14a.29.29,0,0,1-.29.287h-1.618a.288.288,0,0,1-.288-.287V10.7a3.189,3.189,0,0,1-2.007.648A2.248,2.248,0,0,1,163.4,8.871Zm2.282-.13v.13c0,.6.3.72.91.72a2.681,2.681,0,0,0,1.184-.317V7.689h-.822C165.938,7.689,165.678,8.035,165.678,8.741Zm-7.151.144V4.709l-1.155-.187a.339.339,0,0,1-.3-.3V3.269a.315.315,0,0,1,.3-.3h1.155V1.786a.311.311,0,0,1,.29-.288l1.762-.3h.043a.246.246,0,0,1,.26.245V2.966h1.185a.29.29,0,0,1,.289.288V4.421a.289.289,0,0,1-.289.288h-1.185V8.9c0,.576.044.678.476.678h.708c.188,0,.3.086.3.245v1.123a.3.3,0,0,1-.275.288,6.248,6.248,0,0,1-1.14.115C159.366,11.347,158.527,10.93,158.527,8.885ZM150.539,7.7V6.494c0-2.347,1.329-3.643,3.365-3.643a8.037,8.037,0,0,1,1.921.215c.218.059.3.116.3.332V4.68a.26.26,0,0,1-.275.245h-.029a13.778,13.778,0,0,0-1.762-.1c-.649,0-1.184.39-1.184,1.67V7.7c0,1.282.534,1.67,1.184,1.67a13.765,13.765,0,0,0,1.762-.1h.029a.26.26,0,0,1,.275.245V10.8c0,.215-.087.273-.3.331a7.991,7.991,0,0,1-1.921.215C151.868,11.347,150.539,10.052,150.539,7.7Zm-8.521-.058V6.638a3.442,3.442,0,0,1,3.654-3.787c2.37,0,3.568,1.613,3.568,3.787v.836c0,.216-.115.346-.3.346h-4.608v.028a1.377,1.377,0,0,0,1.488,1.568c.91,0,2.2-.071,2.774-.128h.044c.159,0,.274.072.274.23v1.094c0,.23-.058.332-.3.389a11.065,11.065,0,0,1-2.961.345A3.377,3.377,0,0,1,142.018,7.647Zm2.311-1.325V6.38h2.628V6.321c0-1.065-.49-1.6-1.3-1.6C144.863,4.723,144.328,5.27,144.328,6.321ZM124.655,7.6V6.6c0-2.289,1.285-3.744,3.626-3.744s3.61,1.454,3.61,3.744V7.6c0,2.29-1.271,3.743-3.61,3.743S124.655,9.893,124.655,7.6ZM126.981,6.6V7.6c0,1.166.462,1.771,1.3,1.771s1.286-.6,1.286-1.771V6.6c0-1.166-.449-1.757-1.286-1.757S126.981,5.429,126.981,6.6Zm-10.3.173V4.953c0-3.426,2.08-4.565,4.275-4.565a8.224,8.224,0,0,1,2.151.245c.2.059.319.116.319.317v1.4a.255.255,0,0,1-.276.287h-.044c-.548-.043-1.343-.115-2.136-.115-1,0-1.791.518-1.791,2.434V6.768c0,1.915.794,2.433,1.791,2.433.793,0,1.588-.071,2.136-.115h.044a.255.255,0,0,1,.276.289v1.4c0,.2-.116.273-.319.331a8.229,8.229,0,0,1-2.151.244C118.761,11.346,116.682,10.195,116.682,6.768Zm120.482,4.45a.3.3,0,0,1-.3-.288V9.116a.291.291,0,0,1,.3-.274h1.69a.278.278,0,0,1,.29.274V10.93a.29.29,0,0,1-.29.288Zm-19.89,0a.289.289,0,0,1-.289-.288V3.255a.289.289,0,0,1,.289-.288h1.762a.289.289,0,0,1,.289.288V10.93a.289.289,0,0,1-.289.288Zm-36.661,0a.3.3,0,0,1-.289-.3V6.12c0-1.007-.188-1.339-1.069-1.339a3.084,3.084,0,0,0-1.357.461v5.674a.3.3,0,0,1-.29.3h-1.747a.313.313,0,0,1-.3-.3V3.255a.289.289,0,0,1,.288-.288h1.617a.29.29,0,0,1,.29.288V3.6a3.648,3.648,0,0,1,2.354-.749c2.095,0,2.556,1.454,2.556,3.269v4.8a.313.313,0,0,1-.3.3Zm-42.164,0a.3.3,0,0,1-.29-.3V6.12c0-1.007-.188-1.339-1.069-1.339a3.086,3.086,0,0,0-1.357.461v5.674a.3.3,0,0,1-.29.3H133.7a.314.314,0,0,1-.3-.3V3.255a.289.289,0,0,1,.288-.288H135.3a.29.29,0,0,1,.289.288V3.6a3.648,3.648,0,0,1,2.354-.749c2.095,0,2.557,1.454,2.557,3.269v4.8a.314.314,0,0,1-.3.3Zm65.26-9.072c-.087,0-.129-.043-.129-.1a.231.231,0,0,1,.057-.143L204.982.216c.131-.158.188-.216.39-.216h1.892c.1,0,.159.043.159.1a.171.171,0,0,1-.056.115L205.6,1.973c-.117.116-.159.173-.348.173Zm13.506-.115a.289.289,0,0,1-.288-.288V.4a.288.288,0,0,1,.288-.287h1.878a.288.288,0,0,1,.288.287v1.34a.289.289,0,0,1-.288.288Z" transform="translate(34.216 23.351)" fill="#22315e" stroke="rgba(0,0,0,0)" stroke-miterlimit="10" stroke-width="1"/>
  <path id="União_63" data-name="União 63" d="M89.876,19.784a8.816,8.816,0,0,1,.146-1.493L93.016.716a.577.577,0,0,1,.566-.473h3.937a.571.571,0,0,1,.563.665L95.348,16.942a8.579,8.579,0,0,0-.151,1.441c0,1.429.757,1.8,3.111,1.8h5.839a.563.563,0,0,1,.559.657l-.446,2.645a.567.567,0,0,1-.536.47c-1.819.072-4.536.146-5.979.146C93.655,24.1,89.876,23.907,89.876,19.784Zm-11.461,4.26a.57.57,0,0,1-.564-.486L74.956,4.821l-4.544,9.306c-1.137-.6-2.425-1.238-3.845-1.859l4.742-8.951C72.547.99,74.068,0,76,0c1.876,0,3.109,1.048,3.529,3.318l3.675,20.052a.568.568,0,0,1-.558.675Zm-75.094,0a.569.569,0,0,1-.56-.669L6.029,4.15H.573a.575.575,0,0,1-.565-.663L.478.716A.572.572,0,0,1,1.039.243H17.3A.565.565,0,0,1,17.867.9L17.4,3.673a.568.568,0,0,1-.565.476h-5.69L7.834,23.564a.569.569,0,0,1-.563.48ZM31.868,0C38,0,40.315,2.184,40.315,7.3v.026c-1.663.067-3.359.2-5.11.415V7.677c0-2.307-.855-3.7-3.941-3.7-3.917,0-5.112,2.258-5.876,5.768-1.808.51-3.647,1.109-5.519,1.811C21.357,3.363,24.239,0,31.868,0Zm18.6,7.779.62-3.629h-5.46a.571.571,0,0,1-.563-.663L45.534.716a.57.57,0,0,1,.56-.473h16.27A.566.566,0,0,1,62.925.9l-.469,2.768a.57.57,0,0,1-.562.476H56.207l-.771,4.5C53.857,8.3,52.2,8,50.469,7.779Z" transform="translate(17.876 17.773)" fill="#e11e25" stroke="rgba(0,0,0,0)" stroke-miterlimit="10" stroke-width="1"/>
  <path id="União_62" data-name="União 62" d="M0,5.925C1.722,5.251,3.414,4.638,5.084,4.1c-.007.1-.011.2-.011.3,0,1.87.577,3.134,2.446,3.543-1.939.627-3.925,1.32-5.948,2.094A6.484,6.484,0,0,1,0,5.925ZM15.079,1.487C16.9,1.124,18.669.839,20.395.618a29.8,29.8,0,0,1-1.08,4.271c-1.925.384-3.909.831-5.943,1.361A11.605,11.605,0,0,0,15.079,1.487ZM45.432,3.5l.844-1.6c1.567.383,2.986.792,4.244,1.2l-.5,1.024C48.66,3.892,47.128,3.677,45.432,3.5ZM30.4,0q2.65.022,5.077.206L34.984,3.12c-1.648.044-3.368.134-5.164.287Z" transform="translate(37.189 29.988)" fill="#1e2448" stroke="rgba(0,0,0,0)" stroke-miterlimit="10" stroke-width="1"/>
  <rect id="separador" width="0.479" height="36.776" transform="translate(135.893 17.898)" fill="#24325b"/>
</svg>
